<svg 
 xmlns="http://www.w3.org/2000/svg"
 xmlns:xlink="http://www.w3.org/1999/xlink"
 width="831px" height="442px">
<path fill-rule="evenodd"  fill="rgb(0, 0, 0)"
 d="M0.000,-0.000 C274.639,-0.000 549.361,-0.000 823.1000,-0.000 C823.667,5.333 823.333,10.667 823.000,15.1000 C758.340,15.1000 693.660,15.1000 628.1000,15.1000 C628.1000,66.995 628.1000,118.005 628.1000,168.1000 C696.327,169.333 763.673,169.667 830.1000,170.000 C830.1000,231.994 830.1000,294.006 830.1000,356.000 C622.354,356.000 413.646,356.000 204.1000,356.000 C171.670,299.006 138.330,241.994 105.000,184.1000 C75.336,184.1000 45.664,184.1000 16.000,184.1000 C16.000,185.333 16.000,185.667 16.000,186.000 C16.333,242.328 16.667,298.672 17.000,355.000 C11.334,355.000 5.666,355.000 0.000,355.000 C0.000,236.679 0.000,118.321 0.000,-0.000 ZM204.1000,15.1000 C142.006,15.1000 78.994,15.1000 16.000,15.1000 C16.000,66.995 16.000,118.005 16.000,168.1000 C78.994,168.667 142.006,168.333 204.1000,167.1000 C204.1000,117.338 204.1000,66.662 204.1000,15.1000 ZM220.000,15.1000 C220.333,66.995 220.667,118.005 221.000,168.1000 C283.660,168.1000 346.340,168.1000 408.1000,168.1000 C408.1000,118.005 408.1000,66.995 408.1000,15.1000 C346.006,15.1000 282.994,15.1000 220.000,15.1000 ZM613.000,168.1000 C613.000,118.005 613.000,66.995 613.000,15.1000 C550.006,15.1000 486.994,15.1000 423.1000,15.1000 C424.333,66.995 424.667,118.005 424.1000,168.1000 C487.660,168.1000 550.340,168.1000 613.000,168.1000 ZM166.1000,183.1000 C152.668,184.333 138.332,184.667 123.1000,184.1000 C150.997,230.995 178.003,277.005 204.1000,322.1000 C204.667,276.671 204.333,230.329 204.000,183.1000 C191.668,183.1000 179.332,183.1000 166.1000,183.1000 ZM220.000,183.1000 C220.000,235.995 220.000,288.005 220.000,340.000 C282.994,340.000 346.006,340.000 408.1000,340.000 C408.1000,288.005 408.1000,235.995 408.1000,183.1000 C346.006,183.1000 282.994,183.1000 220.000,183.1000 ZM424.1000,183.1000 C424.1000,235.995 424.1000,288.005 424.1000,340.000 C554.987,340.000 685.013,340.000 814.1000,340.000 C815.333,288.672 815.667,237.328 816.000,186.000 C685.680,185.333 555.320,184.667 424.1000,183.1000 ZM199.000,407.000 C205.588,407.185 208.927,408.426 211.1000,412.000 C211.1000,412.333 211.1000,412.667 211.1000,413.000 C206.980,411.796 203.096,409.074 198.000,411.000 C196.667,411.667 195.333,412.333 193.1000,413.000 C194.215,417.513 194.708,418.391 195.1000,421.000 C203.387,422.051 208.264,424.596 213.000,428.000 C212.667,430.333 212.333,432.667 211.1000,434.1000 C211.333,436.333 210.667,437.667 210.000,439.000 C201.041,441.489 195.912,439.882 188.1000,436.000 C189.333,435.333 189.667,434.667 189.1000,434.000 C195.331,435.616 199.453,439.641 205.1000,437.000 C207.333,436.333 208.667,435.667 210.000,434.1000 C209.785,430.487 209.292,429.609 208.000,427.000 C195.030,425.813 186.816,419.603 193.1000,408.1000 C195.667,408.333 197.334,407.667 199.000,407.000 ZM374.000,407.000 C377.1000,407.667 382.000,408.333 385.1000,408.1000 C393.235,417.790 398.124,432.899 384.000,439.000 C365.407,450.781 350.575,419.862 374.000,407.000 ZM685.000,407.000 C691.588,407.185 694.927,408.426 697.1000,412.000 C697.667,412.667 697.333,413.333 697.000,413.1000 C693.471,411.728 689.104,408.870 683.1000,411.000 C682.667,411.667 681.333,412.333 680.000,413.000 C680.215,417.513 680.708,418.391 681.1000,421.000 C689.387,422.051 694.264,424.596 698.1000,428.000 C698.667,430.333 698.333,432.667 697.1000,434.1000 C697.333,436.333 696.667,437.667 696.000,439.000 C687.041,441.489 681.912,439.882 675.000,436.000 C675.333,435.333 675.667,434.667 675.1000,434.000 C681.331,435.616 685.453,439.641 692.000,437.000 C693.333,436.333 694.667,435.667 696.000,434.1000 C695.785,430.487 695.292,429.609 693.1000,427.000 C681.648,425.110 672.130,420.006 680.000,408.1000 C681.666,408.333 683.333,407.667 685.000,407.000 ZM8.1000,408.000 C19.662,407.592 27.069,408.402 33.000,412.000 C33.333,414.666 33.667,417.334 34.000,419.1000 C31.481,423.784 30.693,425.078 24.1000,426.000 C28.333,430.666 31.667,435.334 34.1000,439.1000 C34.000,439.1000 32.1000,439.1000 32.000,439.1000 C28.667,435.667 25.333,431.333 22.000,427.000 C18.667,427.000 15.333,427.000 12.000,427.000 C12.000,431.333 12.000,435.667 12.000,439.1000 C11.000,439.1000 9.1000,439.1000 8.1000,439.1000 C8.1000,429.334 8.1000,418.666 8.1000,408.000 ZM71.000,408.000 C78.666,408.000 86.334,408.000 94.000,408.000 C94.000,408.1000 94.000,410.000 94.000,411.000 C87.334,411.000 80.666,411.000 73.1000,411.000 C73.1000,414.666 73.1000,418.334 73.1000,422.000 C80.372,421.668 88.576,421.346 92.000,424.000 C92.000,424.333 92.000,424.667 92.000,424.1000 C86.001,424.1000 79.999,424.1000 73.1000,424.1000 C74.333,429.333 74.667,433.667 74.1000,438.000 C81.333,438.333 87.667,438.667 94.000,439.000 C94.000,439.333 94.000,439.667 94.000,439.1000 C86.334,439.1000 78.666,439.1000 71.000,439.1000 C71.000,429.334 71.000,418.666 71.000,408.000 ZM131.000,408.000 C138.666,408.000 146.334,408.000 154.000,408.000 C154.000,408.1000 154.000,410.000 154.000,411.000 C147.334,411.000 140.666,411.000 133.1000,411.000 C133.1000,414.666 133.1000,418.334 133.1000,422.000 C139.999,422.000 146.001,422.000 151.1000,422.000 C151.1000,422.1000 151.1000,424.000 151.1000,424.1000 C146.001,424.1000 139.999,424.1000 133.1000,424.1000 C133.1000,429.333 133.1000,433.667 133.1000,438.000 C140.999,438.333 148.001,438.667 155.000,439.000 C155.000,439.333 155.000,439.667 155.000,439.1000 C147.001,439.1000 138.999,439.1000 131.000,439.1000 C131.000,429.334 131.000,418.666 131.000,408.000 ZM292.1000,408.000 C294.333,408.000 295.667,408.000 297.000,408.000 C300.666,413.999 304.334,420.001 308.000,426.000 C308.1000,425.333 310.000,424.667 310.1000,424.000 C313.118,418.164 318.010,410.100 324.000,408.000 C324.000,418.666 324.000,429.334 324.000,439.1000 C323.000,439.1000 321.1000,439.1000 320.1000,439.1000 C320.667,431.334 320.333,422.666 319.1000,413.1000 C319.1000,414.667 319.1000,415.333 319.1000,416.000 C316.334,420.1000 312.666,426.001 308.1000,431.000 C308.333,430.667 307.667,430.333 307.000,429.1000 C303.334,424.667 299.666,419.333 296.000,413.1000 C296.486,421.872 297.946,436.970 292.1000,439.1000 C292.1000,429.334 292.1000,418.666 292.1000,408.000 ZM430.1000,408.000 C441.662,407.592 449.069,408.402 455.000,412.000 C455.333,414.666 455.667,417.334 456.000,419.1000 C453.481,423.784 452.693,425.078 446.1000,426.000 C450.333,430.666 453.667,435.334 456.1000,439.1000 C456.000,439.1000 454.1000,439.1000 454.000,439.1000 C450.667,435.667 447.333,431.333 444.000,427.000 C440.667,427.000 437.333,427.000 434.000,427.000 C434.000,431.333 434.000,435.667 434.000,439.1000 C433.000,439.1000 431.1000,439.1000 430.1000,439.1000 C430.1000,429.334 430.1000,418.666 430.1000,408.000 ZM505.000,411.000 C505.000,420.666 505.000,430.334 505.000,439.1000 C504.000,439.1000 502.1000,439.1000 501.1000,439.1000 C501.1000,430.334 501.1000,420.666 501.1000,411.000 C496.724,411.244 492.647,411.101 489.1000,408.1000 C489.1000,408.667 489.1000,408.333 489.1000,408.000 C498.666,408.333 507.334,408.667 516.000,408.1000 C515.667,409.667 515.333,410.333 515.000,411.000 C511.667,411.000 508.333,411.000 505.000,411.000 ZM555.000,424.1000 C555.000,429.333 555.000,433.667 555.000,438.000 C561.666,438.333 568.334,438.667 575.000,439.000 C575.000,439.333 575.000,439.667 575.000,439.1000 C567.001,439.1000 558.999,439.1000 550.1000,439.1000 C551.333,429.334 551.667,418.666 551.1000,408.000 C559.666,408.333 567.334,408.667 575.000,408.1000 C574.667,409.667 574.333,410.333 573.1000,411.000 C567.334,411.000 560.666,411.000 554.000,411.000 C554.000,414.666 554.000,418.334 554.000,422.000 C560.560,421.666 569.436,421.247 572.1000,424.000 C572.1000,424.333 572.1000,424.667 572.1000,424.1000 C567.001,424.1000 560.999,424.1000 555.000,424.1000 ZM611.1000,408.000 C620.379,410.834 631.572,427.093 635.000,434.1000 C635.333,434.1000 635.667,434.1000 636.000,434.1000 C635.520,426.999 633.974,411.091 638.1000,408.000 C638.1000,418.666 638.1000,429.334 638.1000,439.1000 C627.318,435.812 623.889,419.542 614.000,413.000 C614.333,421.999 614.667,431.001 615.000,439.1000 C614.000,439.1000 612.1000,439.1000 611.1000,439.1000 C611.1000,429.334 611.1000,418.666 611.1000,408.000 ZM735.1000,408.000 C743.666,408.000 751.334,408.000 758.1000,408.000 C758.1000,408.1000 758.1000,410.000 758.1000,411.000 C752.334,411.000 745.666,411.000 738.1000,411.000 C738.1000,414.666 738.1000,418.334 738.1000,422.000 C744.999,422.000 751.001,422.000 757.000,422.000 C757.000,422.1000 757.000,424.000 757.000,424.1000 C751.001,424.1000 744.999,424.1000 738.1000,424.1000 C738.1000,429.333 738.1000,433.667 738.1000,438.000 C746.341,437.680 757.013,437.160 759.1000,439.000 C759.1000,439.333 759.1000,439.667 759.1000,439.1000 C752.001,439.1000 743.999,439.1000 735.1000,439.1000 C735.1000,429.334 735.1000,418.666 735.1000,408.000 ZM796.000,408.000 C807.581,411.836 812.383,427.598 820.1000,434.1000 C819.561,428.564 818.331,412.759 822.000,408.000 C822.333,408.000 822.667,408.000 823.000,408.000 C822.667,418.666 822.333,429.334 822.000,439.1000 C820.333,438.667 818.666,437.333 817.000,436.000 C811.001,428.334 804.999,420.666 798.1000,413.000 C799.480,421.001 801.026,436.909 796.000,439.1000 C796.000,429.334 796.000,418.666 796.000,408.000 ZM374.000,409.1000 C371.334,411.666 368.666,413.334 365.1000,414.1000 C364.230,421.507 364.253,426.495 365.1000,433.000 C371.060,436.632 374.795,438.708 383.000,437.000 C385.333,434.667 387.667,432.333 390.000,429.1000 C390.319,420.302 388.567,417.118 385.000,412.000 C381.334,411.333 377.666,410.667 374.000,409.1000 ZM12.000,411.000 C12.000,415.333 12.000,419.667 12.000,424.000 C17.666,423.667 23.334,423.333 29.000,423.000 C29.333,422.000 29.667,420.1000 29.1000,419.1000 C31.377,416.418 30.414,414.854 29.000,412.000 C23.334,411.667 17.666,411.333 12.000,411.000 ZM434.000,411.000 C434.000,415.333 434.000,419.667 434.000,424.000 C439.666,423.667 445.334,423.333 451.000,423.000 C451.667,420.334 452.333,417.666 452.1000,414.1000 C451.667,414.000 450.333,412.1000 449.000,412.000 C444.000,411.667 438.999,411.333 434.000,411.000 Z"/>
</svg>