<svg 
 xmlns="http://www.w3.org/2000/svg"
 xmlns:xlink="http://www.w3.org/1999/xlink"
 viewBox="0 0 831 356">
<path fill-rule="evenodd"  fill="rgb(0, 0, 0)"
 d="M0.000,-0.000 C274.639,-0.000 549.361,-0.000 823.1000,-0.000 C823.667,5.333 823.333,10.667 823.000,15.1000 C758.340,15.1000 693.660,15.1000 628.1000,15.1000 C628.1000,66.995 628.1000,118.005 628.1000,169.000 C696.327,169.333 763.673,169.667 830.1000,170.000 C830.1000,231.994 830.1000,294.006 830.1000,356.000 C622.354,356.000 413.646,356.000 204.1000,356.000 C171.670,299.006 138.330,241.994 105.000,184.1000 C75.336,184.1000 45.664,184.1000 16.000,184.1000 C16.000,185.333 16.000,185.667 16.000,185.1000 C16.333,242.328 16.667,298.672 17.000,355.000 C11.334,355.000 5.666,355.000 0.000,355.000 C0.000,236.678 0.000,118.322 0.000,-0.000 ZM204.1000,15.1000 C142.006,15.1000 78.994,15.1000 16.000,15.1000 C16.000,66.995 16.000,118.005 16.000,169.000 C78.994,168.667 142.006,168.333 204.1000,168.000 C204.1000,117.338 204.1000,66.662 204.1000,15.1000 ZM220.000,15.1000 C220.333,66.995 220.667,118.005 221.000,169.000 C283.660,169.000 346.340,169.000 408.1000,169.000 C408.1000,118.005 408.1000,66.995 408.1000,15.1000 C346.006,15.1000 282.994,15.1000 220.000,15.1000 ZM613.000,169.000 C613.000,118.005 613.000,66.995 613.000,15.1000 C550.006,15.1000 486.994,15.1000 423.1000,15.1000 C424.333,66.995 424.667,118.005 424.1000,169.000 C487.660,169.000 550.340,169.000 613.000,169.000 ZM166.1000,183.1000 C152.668,184.333 138.332,184.667 123.1000,184.1000 C150.997,230.995 178.003,277.005 204.1000,322.1000 C204.667,276.671 204.333,230.329 204.000,183.1000 C191.668,183.1000 179.332,183.1000 166.1000,183.1000 ZM220.000,183.1000 C220.000,235.995 220.000,288.005 220.000,340.000 C282.994,340.000 346.006,340.000 408.1000,340.000 C408.1000,288.005 408.1000,235.995 408.1000,183.1000 C346.006,183.1000 282.994,183.1000 220.000,183.1000 ZM424.1000,183.1000 C424.1000,235.995 424.1000,288.005 424.1000,340.000 C554.987,340.000 685.013,340.000 814.1000,340.000 C815.333,288.672 815.667,237.328 816.000,185.1000 C685.680,185.333 555.320,184.667 424.1000,183.1000 Z"/>
</svg>